<svg xmlns="http://www.w3.org/2000/svg" width="60.608" height="60.608" viewBox="0 0 60.608 60.608"><defs><style>.a{fill:#fff;}</style></defs><path class="a" d="M158.078,144H133.625l12.227,10.48Zm0,0" transform="translate(-115.547 -124.519)"/><path class="a" d="M134.07,165.108a1.08,1.08,0,0,1-.7-.261L120,153.391v20.375h28.14V153.391l-13.365,11.456a1.08,1.08,0,0,1-.7.261Zm0,0" transform="translate(-103.766 -132.639)"/><path class="a" d="M30.3,0a30.3,30.3,0,1,0,30.3,30.3A30.3,30.3,0,0,0,30.3,0ZM46.539,42.209a1.082,1.082,0,0,1-1.082,1.082h-30.3a1.082,1.082,0,0,1-1.082-1.082V18.4a1.082,1.082,0,0,1,1.082-1.082h30.3A1.082,1.082,0,0,1,46.539,18.4Zm0,0"/></svg>