<svg xmlns="http://www.w3.org/2000/svg" width="82" height="82" viewBox="0 0 82 82"><defs><style>.a,.b{fill:#fff;}.a{opacity:0.14;}</style></defs><g transform="translate(-799 -5625)"><circle class="a" cx="41" cy="41" r="41" transform="translate(799 5625)"/><g transform="translate(823 5654)"><path class="b" d="M244.584,738a7.358,7.358,0,0,0-7.358-7.358H218.142A7.359,7.359,0,0,0,210.784,738v8.944a7.358,7.358,0,0,0,7.358,7.358h19.084a7.358,7.358,0,0,0,7.358-7.358Zm-12.04,4.923-7.611,4.174c-.331.179-.629-.06-.629-.436V738.1c0-.381.307-.62.638-.431l7.663,4.394A.5.5,0,0,1,232.544,742.927Z" transform="translate(-210.784 -730.646)"/></g></g></svg>