<svg xmlns="http://www.w3.org/2000/svg" width="82" height="82" viewBox="0 0 82 82"><defs><style>.a,.b{fill:#fff;}.a{opacity:0.1;}.b{fill-rule:evenodd;}</style></defs><g transform="translate(-1002 -5622)"><circle class="a" cx="41" cy="41" r="41" transform="translate(1002 5622)"/><g transform="translate(1035 5646)"><path class="b" d="M336.6,740.657v16.606a.432.432,0,0,0,.433.432h6.166a.432.432,0,0,0,.433-.432V740.386H348.1a.433.433,0,0,0,.431-.4l.43-5.084a.433.433,0,0,0-.431-.47h-4.9v-3.607a1.531,1.531,0,0,1,1.531-1.531H348.6a.433.433,0,0,0,.432-.433v-5.084a.433.433,0,0,0-.432-.433h-5.822a6.187,6.187,0,0,0-6.187,6.186v4.9h-3.083a.433.433,0,0,0-.433.433v5.085a.432.432,0,0,0,.433.432H336.6Z" transform="translate(-333.079 -723.348)"/></g></g></svg>