<svg xmlns="http://www.w3.org/2000/svg" width="60.825" height="60.825" viewBox="0 0 60.825 60.825"><defs><style>.a{fill:#fff;}</style></defs><g transform="translate(0 0)"><path class="a" d="M51.914,8.9a30.413,30.413,0,1,0,8.911,21.5A30.413,30.413,0,0,0,51.914,8.9Zm-5.855,33.46,0,0v-.01l-1.541,1.531a8.11,8.11,0,0,1-7.654,2.19,26.948,26.948,0,0,1-7.826-3.508,36.159,36.159,0,0,1-6.174-4.978A36.437,36.437,0,0,1,18.247,32a28.382,28.382,0,0,1-3.467-7.015A8.11,8.11,0,0,1,16.808,16.7l1.8-1.8a1.287,1.287,0,0,1,1.821,0l0,0,5.7,5.7a1.287,1.287,0,0,1,0,1.821l0,0-3.345,3.345a2.727,2.727,0,0,0-.284,3.548,39.124,39.124,0,0,0,4,4.673,38.885,38.885,0,0,0,5.271,4.43,2.747,2.747,0,0,0,3.508-.3l3.234-3.285a1.287,1.287,0,0,1,1.821,0l0,0,5.707,5.718A1.287,1.287,0,0,1,46.058,42.364Z" transform="translate(0 0)"/></g></svg>