<svg xmlns="http://www.w3.org/2000/svg" width="82" height="82" viewBox="0 0 82 82"><defs><style>.a,.b{fill:#fff;}.a{opacity:0.1;}</style></defs><g transform="translate(-912 -5625)"><circle class="a" cx="41" cy="41" r="41" transform="translate(912 5625)"/><g transform="translate(938 5652)"><g transform="translate(0.423 8.944)"><path class="b" d="M528.259,742.641v10.681a.478.478,0,0,1-.478.478h-5.513a.478.478,0,0,1-.478-.478v-9.933c0-2.614-.934-4.4-3.276-4.4a3.539,3.539,0,0,0-3.319,2.366,4.433,4.433,0,0,0-.214,1.576v10.389a.478.478,0,0,1-.478.478h-5.511a.476.476,0,0,1-.478-.478c.012-2.645.068-15.478.011-18.495a.475.475,0,0,1,.478-.483h5.5a.477.477,0,0,1,.478.477v2.28c-.013.021-.032.043-.043.063h.043V737.1a6.422,6.422,0,0,1,5.83-3.214c4.256,0,7.447,2.78,7.447,8.755ZM498.945,753.8h5.512a.478.478,0,0,0,.478-.478v-18.5a.477.477,0,0,0-.478-.477h-5.512a.477.477,0,0,0-.477.477v18.5A.478.478,0,0,0,498.945,753.8Z" transform="translate(-498.468 -733.886)"/></g><path class="b" d="M504.97,728.405a3.462,3.462,0,1,1-3.462-3.463A3.463,3.463,0,0,1,504.97,728.405Z" transform="translate(-498.045 -724.942)"/></g></g></svg>