<svg xmlns="http://www.w3.org/2000/svg" width="82" height="82" viewBox="0 0 82 82"><defs><style>.a,.b{fill:#fff;}.a{opacity:0.14;}</style></defs><g transform="translate(-799 -5625)"><circle class="a" cx="41" cy="41" r="41" transform="translate(799 5625)"/><g transform="translate(447.209 4977.491)"><path class="b" d="M401.053,678.4a1.865,1.865,0,1,0,1.866,1.865A1.865,1.865,0,0,0,401.053,678.4Zm-8.293,2.392a7.836,7.836,0,1,0,7.836,7.835A7.845,7.845,0,0,0,392.76,680.792Zm0,12.855a5.019,5.019,0,1,1,5.02-5.02A5.025,5.025,0,0,1,392.76,693.647Zm15.811-11.532a9.558,9.558,0,0,0-9.558-9.558H386.4a9.558,9.558,0,0,0-9.559,9.558v12.616a9.558,9.558,0,0,0,9.559,9.557h12.614a9.557,9.557,0,0,0,9.558-9.557Zm-2.993,12.616a6.564,6.564,0,0,1-6.564,6.564H386.4a6.564,6.564,0,0,1-6.565-6.564V682.115a6.565,6.565,0,0,1,6.565-6.564h12.614a6.564,6.564,0,0,1,6.564,6.564Z" transform="translate(0)"/></g></g></svg>